<svg xmlns="http://www.w3.org/2000/svg" xmlns:xlink="http://www.w3.org/1999/xlink" viewBox="0 0 178.24 35.27"><defs><style>.cls-1{fill:url(#linear-gradient);}.cls-2{fill:#fbcf8e;}.cls-3{fill:url(#linear-gradient-2);}.cls-4{fill:#73e5e2;}.cls-5{font-size:18px;fill:#3a5088;font-family:BritannicBold, Britannic Bold;}</style><linearGradient id="linear-gradient" x1="38.78" y1="64.24" x2="7.76" y2="64.24" gradientTransform="matrix(1, 0, 0, -1, 0, 72)" gradientUnits="userSpaceOnUse"><stop offset="0" stop-color="#73e5e2"/><stop offset="1" stop-color="#394f87"/></linearGradient><linearGradient id="linear-gradient-2" y1="48.73" x2="31.03" y2="48.73" gradientTransform="matrix(1, 0, 0, -1, 0, 72)" gradientUnits="userSpaceOnUse"><stop offset="0" stop-color="#fbdc8e"/><stop offset="1" stop-color="#fb958e"/></linearGradient></defs><title>logo</title><g id="Layer_2" data-name="Layer 2"><g id="Layer_1-2" data-name="Layer 1"><path class="cls-1" d="M38.78,15.51a15.51,15.51,0,1,0-31,0H12.6a4,4,0,0,0,3.45-2.84,7.75,7.75,0,0,1,7.22-4.91A7.75,7.75,0,0,1,31,15.51Z"/><path class="cls-2" d="M29.84,21.45A15.51,15.51,0,0,0,31,15.51h7.75a15.5,15.5,0,0,1-19.4,15,14.78,14.78,0,0,0,2.07-.69,15.53,15.53,0,0,0,5-3.36A15.37,15.37,0,0,0,29.84,21.45Z"/><path class="cls-3" d="M0,15.51a15.52,15.52,0,0,0,31,0H26.18a4,4,0,0,0-3.45,2.84s0,.09-.05.13a7.76,7.76,0,0,1-14.92-3Z"/><path class="cls-4" d="M0,15.51A15.53,15.53,0,0,1,19.4.49a15.5,15.5,0,0,0-11.64,15Z"/><text class="cls-5" transform="translate(43.68 23.46) scale(1 1.3)">BashaMandakini</text></g></g></svg>